<svg id="visual" viewBox="0 0 900 600" width="900" height="600" xmlns="http://www.w3.org/2000/svg" xmlns:xlink="http://www.w3.org/1999/xlink" version="1.1"><rect x="0" y="0" width="900" height="600" fill="#000000"></rect><defs><linearGradient id="grad1_0" x1="33.3%" y1="0%" x2="100%" y2="100%"><stop offset="20%" stop-color="#8f184c" stop-opacity="1"></stop><stop offset="80%" stop-color="#8f184c" stop-opacity="1"></stop></linearGradient></defs><defs><linearGradient id="grad1_1" x1="33.3%" y1="0%" x2="100%" y2="100%"><stop offset="20%" stop-color="#8f184c" stop-opacity="1"></stop><stop offset="80%" stop-color="#710034" stop-opacity="1"></stop></linearGradient></defs><defs><linearGradient id="grad1_2" x1="33.3%" y1="0%" x2="100%" y2="100%"><stop offset="20%" stop-color="#53001e" stop-opacity="1"></stop><stop offset="80%" stop-color="#710034" stop-opacity="1"></stop></linearGradient></defs><defs><linearGradient id="grad1_3" x1="33.3%" y1="0%" x2="100%" y2="100%"><stop offset="20%" stop-color="#53001e" stop-opacity="1"></stop><stop offset="80%" stop-color="#000000" stop-opacity="1"></stop></linearGradient></defs><defs><linearGradient id="grad2_0" x1="0%" y1="0%" x2="66.7%" y2="100%"><stop offset="20%" stop-color="#8f184c" stop-opacity="1"></stop><stop offset="80%" stop-color="#8f184c" stop-opacity="1"></stop></linearGradient></defs><defs><linearGradient id="grad2_1" x1="0%" y1="0%" x2="66.7%" y2="100%"><stop offset="20%" stop-color="#710034" stop-opacity="1"></stop><stop offset="80%" stop-color="#8f184c" stop-opacity="1"></stop></linearGradient></defs><defs><linearGradient id="grad2_2" x1="0%" y1="0%" x2="66.7%" y2="100%"><stop offset="20%" stop-color="#710034" stop-opacity="1"></stop><stop offset="80%" stop-color="#53001e" stop-opacity="1"></stop></linearGradient></defs><defs><linearGradient id="grad2_3" x1="0%" y1="0%" x2="66.7%" y2="100%"><stop offset="20%" stop-color="#000000" stop-opacity="1"></stop><stop offset="80%" stop-color="#53001e" stop-opacity="1"></stop></linearGradient></defs><g transform="translate(900, 0)"><path d="M0 459.7C-60.2 453.8 -120.4 447.9 -175.9 424.7C-231.5 401.5 -282.4 360.9 -312.5 312.5C-342.7 264.2 -352.2 208 -373.2 154.6C-394.3 101.2 -427 50.6 -459.7 0L0 0Z" fill="#450013"></path><path d="M0 344.8C-45.1 340.4 -90.3 336 -131.9 318.5C-173.6 301.1 -211.8 270.7 -234.4 234.4C-257 198.1 -264.1 156 -279.9 116C-295.7 75.9 -320.3 38 -344.8 0L0 0Z" fill="#620029"></path><path d="M0 229.9C-30.1 226.9 -60.2 224 -88 212.4C-115.7 200.7 -141.2 180.5 -156.3 156.3C-171.4 132.1 -176.1 104 -186.6 77.3C-197.2 50.6 -213.5 25.3 -229.9 0L0 0Z" fill="#800040"></path><path d="M0 114.9C-15 113.5 -30.1 112 -44 106.2C-57.9 100.4 -70.6 90.2 -78.1 78.1C-85.7 66 -88 52 -93.3 38.7C-98.6 25.3 -106.8 12.7 -114.9 0L0 0Z" fill="#8f184c"></path></g><g transform="translate(0, 600)"><path d="M0 -459.7C49.4 -419.2 98.9 -378.6 145.8 -352C192.8 -325.4 237.2 -312.7 287.8 -287.8C338.4 -262.9 395 -225.9 424.7 -175.9C454.4 -125.9 457 -63 459.7 0L0 0Z" fill="#450013"></path><path d="M0 -344.8C37.1 -314.4 74.1 -284 109.4 -264C144.6 -244 177.9 -234.5 215.8 -215.8C253.8 -197.2 296.3 -169.4 318.5 -131.9C340.8 -94.4 342.8 -47.2 344.8 0L0 0Z" fill="#620029"></path><path d="M0 -229.9C24.7 -209.6 49.4 -189.3 72.9 -176C96.4 -162.7 118.6 -156.3 143.9 -143.9C169.2 -131.5 197.5 -113 212.4 -88C227.2 -63 228.5 -31.5 229.9 0L0 0Z" fill="#800040"></path><path d="M0 -114.9C12.4 -104.8 24.7 -94.7 36.5 -88C48.2 -81.3 59.3 -78.2 71.9 -71.9C84.6 -65.7 98.8 -56.5 106.2 -44C113.6 -31.5 114.3 -15.7 114.9 0L0 0Z" fill="#8f184c"></path></g></svg>